<?xml version="1.0" encoding="utf-8"?>
<!-- Generator: Adobe Illustrator 16.0.3, SVG Export Plug-In . SVG Version: 6.00 Build 0)  -->
<!DOCTYPE svg PUBLIC "-//W3C//DTD SVG 1.1//EN" "http://www.w3.org/Graphics/SVG/1.1/DTD/svg11.dtd">
<svg version="1.1" id="Layer_1" xmlns="http://www.w3.org/2000/svg" xmlns:xlink="http://www.w3.org/1999/xlink" x="0px" y="0px"
	 width="29px" height="29px" viewBox="0 0 29 29" enable-background="new 0 0 29 29" xml:space="preserve">
<g>
	<path fill="#FFFFFF" d="M1.362,5.52C1.588,5.436,1.83,5.383,2.085,5.383h24.606c0.254,0,0.496,0.053,0.723,0.137L16.391,15.905
		c-1.123,1.058-2.882,1.058-4.004,0L1.362,5.52z M28.469,23.975c0.191-0.314,0.307-0.68,0.307-1.075V7.469
		c0-0.28-0.057-0.547-0.156-0.791l-10.318,9.719L28.469,23.975z M17.369,17.261c-0.857,0.733-1.918,1.105-2.981,1.105
		c-1.064,0-2.125-0.371-2.981-1.105L1.269,24.817c0.251,0.107,0.526,0.167,0.816,0.167h24.606c0.289,0,0.564-0.06,0.816-0.167
		L17.369,17.261z M0.158,6.677C0.057,6.922,0,7.188,0,7.469v15.431c0,0.396,0.116,0.761,0.308,1.075l10.167-7.578L0.158,6.677z"/>
</g>
</svg>
