<?xml version="1.0" encoding="utf-8"?>
<!-- Generator: Adobe Illustrator 16.0.3, SVG Export Plug-In . SVG Version: 6.00 Build 0)  -->
<!DOCTYPE svg PUBLIC "-//W3C//DTD SVG 1.1//EN" "http://www.w3.org/Graphics/SVG/1.1/DTD/svg11.dtd">
<svg version="1.1" id="Layer_1" xmlns="http://www.w3.org/2000/svg" xmlns:xlink="http://www.w3.org/1999/xlink" x="0px" y="0px"
	 width="74px" height="75px" viewBox="0 0 74 75" enable-background="new 0 0 74 75" xml:space="preserve">
<g>
	<path fill="#FFFFFF" d="M67.004,6.995c4.052,4.05,4.233,10.433,0.412,14.259L21.252,67.42c-3.825,3.826-10.21,3.64-14.258-0.408
		l0,0C2.942,62.96,2.756,56.575,6.582,52.749l46.16-46.165C56.57,2.759,62.952,2.943,67.004,6.995L67.004,6.995z"/>
	<path fill="#FFFFFF" d="M67.011,67.008c-4.052,4.049-10.44,4.234-14.263,0.412L6.578,21.254C2.756,17.428,2.945,11.04,6.99,6.995
		l0,0c4.052-4.052,10.433-4.237,14.262-0.412l46.164,46.163C71.244,56.575,71.056,62.956,67.011,67.008L67.011,67.008z"/>
</g>
</svg>
