<?xml version="1.0" encoding="utf-8"?>
<!-- Generator: Adobe Illustrator 16.0.3, SVG Export Plug-In . SVG Version: 6.00 Build 0)  -->
<!DOCTYPE svg PUBLIC "-//W3C//DTD SVG 1.1//EN" "http://www.w3.org/Graphics/SVG/1.1/DTD/svg11.dtd">
<svg version="1.1" id="Layer_1" xmlns="http://www.w3.org/2000/svg" xmlns:xlink="http://www.w3.org/1999/xlink" x="0px" y="0px"
	 width="29px" height="29px" viewBox="0 0 29 29" enable-background="new 0 0 29 29" xml:space="preserve">
<path fill="#FFFFFF" d="M28.259,0.742c0.927,0.927,0.905,2.454-0.05,3.408L4.104,28.256c-0.955,0.955-2.48,0.977-3.408,0.049l0,0
	c-0.927-0.928-0.905-2.453,0.049-3.407L24.852,0.791C25.806-0.163,27.332-0.186,28.259,0.742L28.259,0.742z"/>
<path fill="#FFFFFF" d="M28.258,28.306c-0.927,0.927-2.453,0.905-3.407-0.05L0.744,4.15c-0.955-0.955-0.977-2.48-0.049-3.408l0,0
	c0.928-0.927,2.453-0.905,3.407,0.049l24.106,24.107C29.163,25.853,29.186,27.379,28.258,28.306L28.258,28.306z"/>
</svg>
